<svg xmlns="http://www.w3.org/2000/svg" version="1.1" xmlns:xlink="http://www.w3.org/1999/xlink" xmlns:svgjs="http://svgjs.com/svgjs" width="512" height="512" x="0" y="0" viewBox="0 0 512 512" style="enable-background:new 0 0 512 512" xml:space="preserve" class=""><g>
<g xmlns="http://www.w3.org/2000/svg">
	<g>
		<path d="M256,114c-78.299,0-142,63.701-142,142s63.701,142,142,142s142-63.701,142-142S334.299,114,256,114z M256,378    c-67.271,0-122-54.729-122-122s54.729-122,122-122s122,54.729,122,122S323.271,378,256,378z" fill="#000000" data-original="#000000" class=""></path>
	</g>
</g>
<g xmlns="http://www.w3.org/2000/svg">
	<g>
		<path d="M506.691,1.168c-3.267-1.734-7.225-1.525-10.29,0.545C447.309,34.884,418,90.06,418,149.309v129.752    c0,13.917,5.42,27.001,15.26,36.842l18.74,18.74V482c0,16.542,13.458,30,30,30s30-13.458,30-30V10    C512,6.301,509.958,2.904,506.691,1.168z M492,482c0,5.514-4.486,10-10,10c-5.514,0-10-4.486-10-10V330.5    c0-2.652-1.054-5.195-2.929-7.071l-21.669-21.669c-6.063-6.063-9.402-14.124-9.402-22.699V149.309    c0-45.98,19.881-89.194,54-119.012V482z" fill="#000000" data-original="#000000" class=""></path>
	</g>
</g>
<g xmlns="http://www.w3.org/2000/svg">
	<g>
		<path d="M233.058,176.693c-2.168-5.079-8.046-7.438-13.124-5.271c-33.933,14.486-55.859,47.685-55.859,84.578    c0,5.522,4.477,10,10,10s10-4.478,10-10c0-28.869,17.158-54.848,43.712-66.183C232.866,187.649,235.226,181.773,233.058,176.693z" fill="#000000" data-original="#000000" class=""></path>
	</g>
</g>
<g xmlns="http://www.w3.org/2000/svg">
	<g>
		<path d="M256,164.075l-0.505,0.001c-5.523,0.037-9.97,4.544-9.933,10.067c0.037,5.5,4.507,9.933,9.999,9.933    c0.022,0,0.046,0,0.068,0l0.371-0.001c5.523,0,10-4.477,10-10C266,168.552,261.523,164.075,256,164.075z" fill="#000000" data-original="#000000" class=""></path>
	</g>
</g>
<g xmlns="http://www.w3.org/2000/svg">
	<g>
		<path d="M394.623,124.479c-17.668-18.616-38.494-33.264-61.899-43.536C308.488,70.307,282.674,64.914,256,64.914    c-30.48,0-59.616,6.966-86.598,20.706c-4.921,2.506-6.88,8.527-4.374,13.449c2.507,4.92,8.528,6.878,13.45,4.373    C202.622,91.148,228.704,84.914,256,84.914c47.396,0,91.475,18.94,124.116,53.333c1.966,2.072,4.608,3.116,7.255,3.116    c2.472,0,4.948-0.911,6.882-2.747C398.259,134.814,398.424,128.485,394.623,124.479z" fill="#000000" data-original="#000000" class=""></path>
	</g>
</g>
<g xmlns="http://www.w3.org/2000/svg">
	<g>
		<path d="M404.331,360.379c-4.333-3.424-10.621-2.689-14.046,1.643c-32.693,41.35-81.638,65.064-134.285,65.064    c-32.95,0-64.937-9.384-92.503-27.138c-4.642-2.991-10.832-1.65-13.822,2.992c-2.99,4.644-1.65,10.832,2.993,13.822    C183.47,436.6,219.202,447.085,256,447.085c58.8,0,113.463-26.483,149.973-72.66C409.398,370.094,408.664,363.805,404.331,360.379    z" fill="#000000" data-original="#000000" class=""></path>
	</g>
</g>
<g xmlns="http://www.w3.org/2000/svg">
	<g>
		<path d="M135.958,377.924l-0.147-0.169c-0.053-0.065-0.106-0.131-0.161-0.195c-3.557-4.226-9.865-4.766-14.09-1.21    c-4.225,3.558-4.767,9.865-1.209,14.091l0.097,0.115l0.005-0.004c0.106,0.134,0.216,0.268,0.33,0.4    c1.978,2.304,4.776,3.486,7.592,3.486c2.306,0,4.623-0.793,6.509-2.412C139.074,388.428,139.555,382.115,135.958,377.924z" fill="#000000" data-original="#000000" class=""></path>
	</g>
</g>
<g xmlns="http://www.w3.org/2000/svg">
	<g>
		<path d="M124,0c-5.523,0-10,4.477-10,10v108H95.992c0.001-0.056,0.008-0.11,0.008-0.167V10c0-5.523-4.477-10-10-10S76,4.477,76,10    v107.833c0,0.056,0.008,0.111,0.008,0.167H57.992c0.001-0.056,0.008-0.11,0.008-0.167V10c0-5.523-4.477-10-10-10S38,4.477,38,10    v107.833c0,0.056,0.008,0.111,0.008,0.167H20V10c0-5.523-4.477-10-10-10S0,4.477,0,10v122c0,24.53,14.884,46.669,37,56.239V482    c0,16.542,13.458,30,30,30s30-13.458,30-30V188.239c22.116-9.57,37-31.709,37-56.239V10C134,4.477,129.523,0,124,0z     M84.224,171.62c-4.278,1.236-7.224,5.153-7.224,9.607V482c0,5.514-4.486,10-10,10s-10-4.486-10-10V181.227    c0-4.454-2.945-8.371-7.224-9.607c-15.583-4.503-26.981-17.879-29.324-33.62h93.095C111.205,153.741,99.807,167.117,84.224,171.62    z" fill="#000000" data-original="#000000" class=""></path>
	</g>
</g>
<g xmlns="http://www.w3.org/2000/svg">
</g>
<g xmlns="http://www.w3.org/2000/svg">
</g>
<g xmlns="http://www.w3.org/2000/svg">
</g>
<g xmlns="http://www.w3.org/2000/svg">
</g>
<g xmlns="http://www.w3.org/2000/svg">
</g>
<g xmlns="http://www.w3.org/2000/svg">
</g>
<g xmlns="http://www.w3.org/2000/svg">
</g>
<g xmlns="http://www.w3.org/2000/svg">
</g>
<g xmlns="http://www.w3.org/2000/svg">
</g>
<g xmlns="http://www.w3.org/2000/svg">
</g>
<g xmlns="http://www.w3.org/2000/svg">
</g>
<g xmlns="http://www.w3.org/2000/svg">
</g>
<g xmlns="http://www.w3.org/2000/svg">
</g>
<g xmlns="http://www.w3.org/2000/svg">
</g>
<g xmlns="http://www.w3.org/2000/svg">
</g>
</g></svg>